<svg version="1.1" viewBox="0.0 0.0 966.0 597.0" fill="none" stroke="none" stroke-linecap="square" stroke-miterlimit="10" width="966" height="597" xmlns:xlink="http://www.w3.org/1999/xlink" xmlns="http://www.w3.org/2000/svg"><path fill="#ffffff" d="M0 0L966.0 0L966.0 597.0L0 597.0L0 0Z" fill-rule="nonzero"/><path stroke="#333333" stroke-width="1.0" stroke-linecap="butt" d="M88.5 114.5L88.5 509.5" fill-rule="nonzero"/><path stroke="#cccccc" stroke-width="1.0" stroke-linecap="butt" d="M371.5 114.5L371.5 509.5" fill-rule="nonzero"/><path stroke="#cccccc" stroke-width="1.0" stroke-linecap="butt" d="M653.5 114.5L653.5 509.5" fill-rule="nonzero"/><path stroke="#cccccc" stroke-width="1.0" stroke-linecap="butt" d="M936.5 114.5L936.5 509.5" fill-rule="nonzero"/><path stroke="#e6e6e6" stroke-width="1.0" stroke-linecap="butt" d="M182.5 114.5L182.5 509.5" fill-rule="nonzero"/><path stroke="#e6e6e6" stroke-width="1.0" stroke-linecap="butt" d="M277.5 114.5L277.5 509.5" fill-rule="nonzero"/><path stroke="#e6e6e6" stroke-width="1.0" stroke-linecap="butt" d="M465.5 114.5L465.5 509.5" fill-rule="nonzero"/><path stroke="#e6e6e6" stroke-width="1.0" stroke-linecap="butt" d="M559.5 114.5L559.5 509.5" fill-rule="nonzero"/><path stroke="#e6e6e6" stroke-width="1.0" stroke-linecap="butt" d="M747.5 114.5L747.5 509.5" fill-rule="nonzero"/><path stroke="#e6e6e6" stroke-width="1.0" stroke-linecap="butt" d="M842.5 114.5L842.5 509.5" fill-rule="nonzero"/><path stroke="#cccccc" stroke-width="1.0" stroke-linecap="butt" d="M88.5 509.5L936.5 509.5" fill-rule="nonzero"/><path stroke="#cccccc" stroke-width="1.0" stroke-linecap="butt" d="M88.5 377.5L936.5 377.5" fill-rule="nonzero"/><path stroke="#cccccc" stroke-width="1.0" stroke-linecap="butt" d="M88.5 246.5L936.5 246.5" fill-rule="nonzero"/><path stroke="#cccccc" stroke-width="1.0" stroke-linecap="butt" d="M88.5 114.5L936.5 114.5" fill-rule="nonzero"/><path stroke="#e6e6e6" stroke-width="1.0" stroke-linecap="butt" d="M88.5 443.5L936.5 443.5" fill-rule="nonzero"/><path stroke="#e6e6e6" stroke-width="1.0" stroke-linecap="butt" d="M88.5 311.5L936.5 311.5" fill-rule="nonzero"/><path stroke="#e6e6e6" stroke-width="1.0" stroke-linecap="butt" d="M88.5 180.5L936.5 180.5" fill-rule="nonzero"/><clipPath id="id_0"><path d="M88.85 114.65L936.15 114.65L936.15 509.08783L88.85 509.08783L88.85 114.65Z" clip-rule="nonzero"/></clipPath><path stroke="#4285f4" stroke-width="2.0" stroke-linecap="butt" clip-path="url(#id_0)" d="M122.17713 369.78552L150.42047 317.52252L178.6638 307.2014L206.90714 314.62997L235.15047 331.26212L263.3938 329.48712L291.63715 319.2975L319.88046 343.3582L348.1238 338.82217L376.36713 281.4972L404.61047 321.1382L432.8538 296.55157L461.09714 422.24576L489.34045 331.3936L517.5838 321.66412L545.82715 307.92453L574.0705 304.5718L602.3138 300.233L630.5571 312.1976L658.8005 263.48453L687.0438 291.88406L715.2871 283.00922L743.53046 301.94223L771.7738 273.08252L800.01715 338.09903L828.26044 320.1521L856.5038 306.28104L884.74713 306.8727L912.9905 285.3101" fill-rule="nonzero"/><path stroke="#ea4335" stroke-width="2.0" stroke-linecap="butt" stroke-opacity="0.4" clip-path="url(#id_0)" d="M0 341.62875L936.15 293.8336" fill-rule="nonzero"/><path fill="#000000" fill-opacity="0.0" clip-path="url(#id_0)" d="M125.17713 369.78552C125.17713 371.44238 123.833984 372.78552 122.17713 372.78552C120.52028 372.78552 119.17713 371.44238 119.17713 369.78552C119.17713 368.12866 120.52028 366.78552 122.17713 366.78552C123.833984 366.78552 125.17713 368.12866 125.17713 369.78552Z" fill-rule="nonzero"/><path fill="#000000" fill-opacity="0.0" clip-path="url(#id_0)" d="M153.42047 317.52252C153.42047 319.17938 152.07732 320.52252 150.42047 320.52252C148.76361 320.52252 147.42047 319.17938 147.42047 317.52252C147.42047 315.86566 148.76361 314.52252 150.42047 314.52252C152.07732 314.52252 153.42047 315.86566 153.42047 317.52252Z" fill-rule="nonzero"/><path fill="#000000" fill-opacity="0.0" clip-path="url(#id_0)" d="M181.6638 307.2014C181.6638 308.85825 180.32065 310.2014 178.6638 310.2014C177.00694 310.2014 175.6638 308.85825 175.6638 307.2014C175.6638 305.54456 177.00694 304.2014 178.6638 304.2014C180.32065 304.2014 181.6638 305.54456 181.6638 307.2014Z" fill-rule="nonzero"/><path fill="#000000" fill-opacity="0.0" clip-path="url(#id_0)" d="M209.90714 314.62997C209.90714 316.28683 208.56398 317.62997 206.90714 317.62997C205.25027 317.62997 203.90714 316.28683 203.90714 314.62997C203.90714 312.9731 205.25027 311.62997 206.90714 311.62997C208.56398 311.62997 209.90714 312.9731 209.90714 314.62997Z" fill-rule="nonzero"/><path fill="#000000" fill-opacity="0.0" clip-path="url(#id_0)" d="M238.15047 331.26212C238.15047 332.91895 236.80733 334.26212 235.15047 334.26212C233.4936 334.26212 232.15047 332.91895 232.15047 331.26212C232.15047 329.60526 233.4936 328.26212 235.15047 328.26212C236.80733 328.26212 238.15047 329.60526 238.15047 331.26212Z" fill-rule="nonzero"/><path fill="#000000" fill-opacity="0.0" clip-path="url(#id_0)" d="M266.3938 329.48712C266.3938 331.14398 265.05066 332.48712 263.3938 332.48712C261.73694 332.48712 260.3938 331.14398 260.3938 329.48712C260.3938 327.8303 261.73694 326.48712 263.3938 326.48712C265.05066 326.48712 266.3938 327.8303 266.3938 329.48712Z" fill-rule="nonzero"/><path fill="#000000" fill-opacity="0.0" clip-path="url(#id_0)" d="M294.63715 319.2975C294.63715 320.95435 293.29398 322.2975 291.63715 322.2975C289.9803 322.2975 288.63715 320.95435 288.63715 319.2975C288.63715 317.64062 289.9803 316.2975 291.63715 316.2975C293.29398 316.2975 294.63715 317.64062 294.63715 319.2975Z" fill-rule="nonzero"/><path fill="#000000" fill-opacity="0.0" clip-path="url(#id_0)" d="M322.88046 343.3582C322.88046 345.01505 321.53732 346.3582 319.88046 346.3582C318.2236 346.3582 316.88046 345.01505 316.88046 343.3582C316.88046 341.70135 318.2236 340.3582 319.88046 340.3582C321.53732 340.3582 322.88046 341.70135 322.88046 343.3582Z" fill-rule="nonzero"/><path fill="#000000" fill-opacity="0.0" clip-path="url(#id_0)" d="M351.1238 338.82217C351.1238 340.479 349.78064 341.82217 348.1238 341.82217C346.46695 341.82217 345.1238 340.479 345.1238 338.82217C345.1238 337.1653 346.46695 335.82217 348.1238 335.82217C349.78064 335.82217 351.1238 337.1653 351.1238 338.82217Z" fill-rule="nonzero"/><path fill="#000000" fill-opacity="0.0" clip-path="url(#id_0)" d="M379.36713 281.4972C379.36713 283.15405 378.024 284.4972 376.36713 284.4972C374.71027 284.4972 373.36713 283.15405 373.36713 281.4972C373.36713 279.84033 374.71027 278.4972 376.36713 278.4972C378.024 278.4972 379.36713 279.84033 379.36713 281.4972Z" fill-rule="nonzero"/><path fill="#000000" fill-opacity="0.0" clip-path="url(#id_0)" d="M407.61047 321.1382C407.61047 322.79504 406.26733 324.1382 404.61047 324.1382C402.9536 324.1382 401.61047 322.79504 401.61047 321.1382C401.61047 319.48135 402.9536 318.1382 404.61047 318.1382C406.26733 318.1382 407.61047 319.48135 407.61047 321.1382Z" fill-rule="nonzero"/><path fill="#000000" fill-opacity="0.0" clip-path="url(#id_0)" d="M435.8538 296.55157C435.8538 298.20844 434.51065 299.55157 432.8538 299.55157C431.19696 299.55157 429.8538 298.20844 429.8538 296.55157C429.8538 294.8947 431.19696 293.55157 432.8538 293.55157C434.51065 293.55157 435.8538 294.8947 435.8538 296.55157Z" fill-rule="nonzero"/><path fill="#000000" fill-opacity="0.0" clip-path="url(#id_0)" d="M464.09714 422.24576C464.09714 423.90262 462.754 425.24576 461.09714 425.24576C459.44028 425.24576 458.09714 423.90262 458.09714 422.24576C458.09714 420.5889 459.44028 419.24576 461.09714 419.24576C462.754 419.24576 464.09714 420.5889 464.09714 422.24576Z" fill-rule="nonzero"/><path fill="#000000" fill-opacity="0.0" clip-path="url(#id_0)" d="M492.34045 331.3936C492.34045 333.05045 490.9973 334.3936 489.34045 334.3936C487.68362 334.3936 486.34045 333.05045 486.34045 331.3936C486.34045 329.73672 487.68362 328.3936 489.34045 328.3936C490.9973 328.3936 492.34045 329.73672 492.34045 331.3936Z" fill-rule="nonzero"/><path fill="#000000" fill-opacity="0.0" clip-path="url(#id_0)" d="M520.5838 321.66412C520.5838 323.32098 519.24066 324.66412 517.5838 324.66412C515.92694 324.66412 514.5838 323.32098 514.5838 321.66412C514.5838 320.00726 515.92694 318.66412 517.5838 318.66412C519.24066 318.66412 520.5838 320.00726 520.5838 321.66412Z" fill-rule="nonzero"/><path fill="#000000" fill-opacity="0.0" clip-path="url(#id_0)" d="M548.82715 307.92453C548.82715 309.5814 547.484 310.92453 545.82715 310.92453C544.1703 310.92453 542.82715 309.5814 542.82715 307.92453C542.82715 306.26767 544.1703 304.92453 545.82715 304.92453C547.484 304.92453 548.82715 306.26767 548.82715 307.92453Z" fill-rule="nonzero"/><path fill="#000000" fill-opacity="0.0" clip-path="url(#id_0)" d="M577.0705 304.5718C577.0705 306.22867 575.7273 307.5718 574.0705 307.5718C572.41364 307.5718 571.0705 306.22867 571.0705 304.5718C571.0705 302.91495 572.41364 301.5718 574.0705 301.5718C575.7273 301.5718 577.0705 302.91495 577.0705 304.5718Z" fill-rule="nonzero"/><path fill="#000000" fill-opacity="0.0" clip-path="url(#id_0)" d="M605.3138 300.233C605.3138 301.88986 603.97064 303.233 602.3138 303.233C600.6569 303.233 599.3138 301.88986 599.3138 300.233C599.3138 298.57614 600.6569 297.233 602.3138 297.233C603.97064 297.233 605.3138 298.57614 605.3138 300.233Z" fill-rule="nonzero"/><path fill="#000000" fill-opacity="0.0" clip-path="url(#id_0)" d="M633.5571 312.1976C633.5571 313.85446 632.214 315.1976 630.5571 315.1976C628.90027 315.1976 627.5571 313.85446 627.5571 312.1976C627.5571 310.54074 628.90027 309.1976 630.5571 309.1976C632.214 309.1976 633.5571 310.54074 633.5571 312.1976Z" fill-rule="nonzero"/><path fill="#000000" fill-opacity="0.0" clip-path="url(#id_0)" d="M661.8005 263.48453C661.8005 265.1414 660.45734 266.48453 658.8005 266.48453C657.1436 266.48453 655.8005 265.1414 655.8005 263.48453C655.8005 261.8277 657.1436 260.48453 658.8005 260.48453C660.45734 260.48453 661.8005 261.8277 661.8005 263.48453Z" fill-rule="nonzero"/><path fill="#000000" fill-opacity="0.0" clip-path="url(#id_0)" d="M690.0438 291.88406C690.0438 293.54092 688.7007 294.88406 687.0438 294.88406C685.38696 294.88406 684.0438 293.54092 684.0438 291.88406C684.0438 290.2272 685.38696 288.88406 687.0438 288.88406C688.7007 288.88406 690.0438 290.2272 690.0438 291.88406Z" fill-rule="nonzero"/><path fill="#000000" fill-opacity="0.0" clip-path="url(#id_0)" d="M718.2871 283.00922C718.2871 284.66608 716.944 286.00922 715.2871 286.00922C713.63025 286.00922 712.2871 284.66608 712.2871 283.00922C712.2871 281.35236 713.63025 280.00922 715.2871 280.00922C716.944 280.00922 718.2871 281.35236 718.2871 283.00922Z" fill-rule="nonzero"/><path fill="#000000" fill-opacity="0.0" clip-path="url(#id_0)" d="M746.53046 301.94223C746.53046 303.5991 745.1873 304.94223 743.53046 304.94223C741.8736 304.94223 740.53046 303.5991 740.53046 301.94223C740.53046 300.28537 741.8736 298.94223 743.53046 298.94223C745.1873 298.94223 746.53046 300.28537 746.53046 301.94223Z" fill-rule="nonzero"/><path fill="#000000" fill-opacity="0.0" clip-path="url(#id_0)" d="M774.7738 273.08252C774.7738 274.73938 773.43066 276.08252 771.7738 276.08252C770.11694 276.08252 768.7738 274.73938 768.7738 273.08252C768.7738 271.42566 770.11694 270.08252 771.7738 270.08252C773.43066 270.08252 774.7738 271.42566 774.7738 273.08252Z" fill-rule="nonzero"/><path fill="#000000" fill-opacity="0.0" clip-path="url(#id_0)" d="M803.01715 338.09903C803.01715 339.7559 801.674 341.09903 800.01715 341.09903C798.3603 341.09903 797.01715 339.7559 797.01715 338.09903C797.01715 336.44217 798.3603 335.09903 800.01715 335.09903C801.674 335.09903 803.01715 336.44217 803.01715 338.09903Z" fill-rule="nonzero"/><path fill="#000000" fill-opacity="0.0" clip-path="url(#id_0)" d="M831.26044 320.1521C831.26044 321.80896 829.9173 323.1521 828.26044 323.1521C826.60364 323.1521 825.26044 321.80896 825.26044 320.1521C825.26044 318.49524 826.60364 317.1521 828.26044 317.1521C829.9173 317.1521 831.26044 318.49524 831.26044 320.1521Z" fill-rule="nonzero"/><path fill="#000000" fill-opacity="0.0" clip-path="url(#id_0)" d="M859.5038 306.28104C859.5038 307.9379 858.16064 309.28104 856.5038 309.28104C854.8469 309.28104 853.5038 307.9379 853.5038 306.28104C853.5038 304.62418 854.8469 303.28104 856.5038 303.28104C858.16064 303.28104 859.5038 304.62418 859.5038 306.28104Z" fill-rule="nonzero"/><path fill="#000000" fill-opacity="0.0" clip-path="url(#id_0)" d="M887.74713 306.8727C887.74713 308.52954 886.404 309.8727 884.74713 309.8727C883.0903 309.8727 881.74713 308.52954 881.74713 306.8727C881.74713 305.21585 883.0903 303.8727 884.74713 303.8727C886.404 303.8727 887.74713 305.21585 887.74713 306.8727Z" fill-rule="nonzero"/><path fill="#000000" fill-opacity="0.0" clip-path="url(#id_0)" d="M915.9905 285.3101C915.9905 286.96695 914.64734 288.3101 912.9905 288.3101C911.3336 288.3101 909.9905 286.96695 909.9905 285.3101C909.9905 283.65323 911.3336 282.3101 912.9905 282.3101C914.64734 282.3101 915.9905 283.65323 915.9905 285.3101Z" fill-rule="nonzero"/><path fill="#000000" d="M471.78125 564.15L471.78125 557.9313L472.73438 557.9313L472.73438 558.8688Q473.09375 558.2125 473.39062 558.0094Q473.70312 557.79065 474.07812 557.79065Q474.60938 557.79065 475.15625 558.1188L474.79688 559.10315Q474.40625 558.8688 474.03125 558.8688Q473.67188 558.8688 473.39062 559.0875Q473.125 559.29065 473.01562 559.66565Q472.82812 560.22815 472.82812 560.8844L472.82812 564.15L471.78125 564.15ZM480.04688 562.15L481.14062 562.275Q480.89062 563.22815 480.1875 563.7594Q479.48438 564.29065 478.40625 564.29065Q477.04688 564.29065 476.23438 563.4469Q475.4375 562.60315 475.4375 561.0875Q475.4375 559.525 476.25 558.66565Q477.0625 557.79065 478.34375 557.79065Q479.59375 557.79065 480.375 558.6344Q481.17188 559.47815 481.17188 561.025Q481.17188 561.1188 481.17188 561.3063L476.53125 561.3063Q476.59375 562.3375 477.10938 562.8844Q477.625 563.41565 478.40625 563.41565Q478.98438 563.41565 479.39062 563.1188Q479.8125 562.8063 480.04688 562.15ZM476.59375 560.4469L480.0625 560.4469Q480.0 559.65 479.67188 559.2594Q479.15625 558.65 478.35938 558.65Q477.625 558.65 477.125 559.1344Q476.64062 559.6188 476.59375 560.4469ZM486.85938 563.3844Q486.26562 563.8844 485.71875 564.0875Q485.1875 564.29065 484.5625 564.29065Q483.53125 564.29065 482.98438 563.79065Q482.4375 563.29065 482.4375 562.5094Q482.4375 562.0563 482.64062 561.6813Q482.84375 561.29065 483.1875 561.0719Q483.53125 560.8375 483.95312 560.72815Q484.25 560.6344 484.89062 560.5563Q486.15625 560.41565 486.76562 560.1969Q486.76562 559.97815 486.76562 559.9313Q486.76562 559.275 486.46875 559.0094Q486.0625 558.66565 485.26562 558.66565Q484.53125 558.66565 484.17188 558.9313Q483.8125 559.1813 483.64062 559.8375L482.60938 559.6969Q482.75 559.04065 483.07812 558.6344Q483.40625 558.22815 484.01562 558.0094Q484.625 557.79065 485.42188 557.79065Q486.21875 557.79065 486.71875 557.97815Q487.21875 558.16565 487.45312 558.4469Q487.6875 558.72815 487.78125 559.16565Q487.82812 559.4313 487.82812 560.1344L487.82812 561.54065Q487.82812 563.0094 487.89062 563.4Q487.96875 563.79065 488.17188 564.15L487.0625 564.15Q486.90625 563.8219 486.85938 563.3844ZM486.76562 561.025Q486.1875 561.2594 485.04688 561.4313Q484.39062 561.525 484.125 561.65Q483.85938 561.7594 483.70312 561.97815Q483.5625 562.1969 483.5625 562.47815Q483.5625 562.9 483.875 563.1813Q484.20312 563.4625 484.8125 563.4625Q485.42188 563.4625 485.89062 563.1969Q486.375 562.9313 486.59375 562.4625Q486.76562 562.10315 486.76562 561.41565L486.76562 561.025ZM489.76562 564.15L489.76562 555.5563L490.82812 555.5563L490.82812 564.15L489.76562 564.15ZM495.375 562.29065L496.40625 562.1344Q496.5 562.7594 496.89062 563.0875Q497.29688 563.41565 498.03125 563.41565Q498.75 563.41565 499.09375 563.1344Q499.45312 562.8375 499.45312 562.4313Q499.45312 562.0719 499.14062 561.8688Q498.92188 561.72815 498.0625 561.5094Q496.90625 561.2125 496.45312 561.0094Q496.01562 560.79065 495.78125 560.41565Q495.54688 560.04065 495.54688 559.5719Q495.54688 559.16565 495.73438 558.8063Q495.92188 558.4469 496.25 558.2125Q496.5 558.04065 496.92188 557.91565Q497.34375 557.79065 497.84375 557.79065Q498.5625 557.79065 499.10938 558.0094Q499.67188 558.2125 499.9375 558.5719Q500.20312 558.9313 500.29688 559.525L499.26562 559.66565Q499.20312 559.1969 498.85938 558.9313Q498.53125 558.65 497.90625 558.65Q497.1875 558.65 496.875 558.9Q496.5625 559.1344 496.5625 559.4625Q496.5625 559.66565 496.6875 559.8219Q496.82812 559.9938 497.09375 560.10315Q497.25 560.16565 498.03125 560.3688Q499.15625 560.6813 499.59375 560.8688Q500.03125 561.0563 500.28125 561.41565Q500.53125 561.775 500.53125 562.3219Q500.53125 562.85315 500.21875 563.3219Q499.92188 563.775 499.34375 564.04065Q498.76562 564.29065 498.03125 564.29065Q496.8125 564.29065 496.17188 563.79065Q495.54688 563.275 495.375 562.29065ZM502.79688 556.775L502.79688 555.5563L503.85938 555.5563L503.85938 556.775L502.79688 556.775ZM502.79688 564.15L502.79688 557.9313L503.85938 557.9313L503.85938 564.15L502.79688 564.15ZM505.23438 564.15L505.23438 563.29065L509.20312 558.7438Q508.51562 558.775 508.0 558.775L505.46875 558.775L505.46875 557.9313L510.5625 557.9313L510.5625 558.6188L507.1875 562.5719L506.53125 563.29065Q507.25 563.2438 507.85938 563.2438L510.75 563.2438L510.75 564.15L505.23438 564.15ZM515.0469 562.15L516.1406 562.275Q515.8906 563.22815 515.1875 563.7594Q514.4844 564.29065 513.40625 564.29065Q512.0469 564.29065 511.23438 563.4469Q510.4375 562.60315 510.4375 561.0875Q510.4375 559.525 511.25 558.66565Q512.0625 557.79065 513.34375 557.79065Q514.59375 557.79065 515.375 558.6344Q516.1719 559.47815 516.1719 561.025Q516.1719 561.1188 516.1719 561.3063L511.53125 561.3063Q511.59375 562.3375 512.1094 562.8844Q512.625 563.41565 513.40625 563.41565Q513.9844 563.41565 514.3906 563.1188Q514.8125 562.8063 515.0469 562.15ZM511.59375 560.4469L515.0625 560.4469Q515.0 559.65 514.6719 559.2594Q514.15625 558.65 513.3594 558.65Q512.625 558.65 512.125 559.1344Q511.64062 559.6188 511.59375 560.4469ZM520.40625 561.04065Q520.40625 559.3063 521.3594 558.47815Q522.15625 557.79065 523.3125 557.79065Q524.59375 557.79065 525.40625 558.6344Q526.2344 559.4625 526.2344 560.9469Q526.2344 562.15 525.875 562.8375Q525.5156 563.525 524.8125 563.91565Q524.125 564.29065 523.3125 564.29065Q522.0156 564.29065 521.2031 563.4625Q520.40625 562.6188 520.40625 561.04065ZM521.4844 561.04065Q521.4844 562.22815 522.0 562.8219Q522.53125 563.41565 523.3125 563.41565Q524.1094 563.41565 524.625 562.8219Q525.1406 562.22815 525.1406 561.0094Q525.1406 559.85315 524.6094 559.2594Q524.09375 558.66565 523.3125 558.66565Q522.53125 558.66565 522.0 559.2594Q521.4844 559.8375 521.4844 561.04065ZM528.0469 564.15L528.0469 558.7438L527.1094 558.7438L527.1094 557.9313L528.0469 557.9313L528.0469 557.2594Q528.0469 556.6344 528.15625 556.3375Q528.3125 555.91565 528.6875 555.66565Q529.0781 555.41565 529.7656 555.41565Q530.21875 555.41565 530.75 555.525L530.59375 556.4313Q530.2656 556.3844 529.96875 556.3844Q529.4844 556.3844 529.28125 556.5875Q529.09375 556.79065 529.09375 557.35315L529.09375 557.9313L530.3125 557.9313L530.3125 558.7438L529.09375 558.7438L529.09375 564.15L528.0469 564.15ZM533.7969 564.15L533.7969 557.9313L534.7344 557.9313L534.7344 558.8063Q535.03125 558.3375 535.5156 558.0719Q536.0 557.79065 536.625 557.79065Q537.3125 557.79065 537.75 558.0719Q538.2031 558.35315 538.375 558.8688Q539.125 557.79065 540.2969 557.79065Q541.2344 557.79065 541.71875 558.3063Q542.21875 558.8063 542.21875 559.8844L542.21875 564.15L541.1719 564.15L541.1719 560.22815Q541.1719 559.60315 541.0625 559.3219Q540.96875 559.04065 540.7031 558.8688Q540.4375 558.6969 540.0625 558.6969Q539.40625 558.6969 538.96875 559.1344Q538.5469 559.5719 538.5469 560.54065L538.5469 564.15L537.4844 564.15L537.4844 560.10315Q537.4844 559.4 537.21875 559.0563Q536.96875 558.6969 536.3906 558.6969Q535.9375 558.6969 535.5625 558.9313Q535.1875 559.16565 535.0156 559.6188Q534.84375 560.0719 534.84375 560.91565L534.84375 564.15L533.7969 564.15ZM544.7969 556.775L544.7969 555.5563L545.8594 555.5563L545.8594 556.775L544.7969 556.775ZM544.7969 564.15L544.7969 557.9313L545.8594 557.9313L545.8594 564.15L544.7969 564.15ZM547.7969 564.15L547.7969 557.9313L548.7344 557.9313L548.7344 558.8063Q549.4219 557.79065 550.71875 557.79065Q551.28125 557.79065 551.75 557.9938Q552.2344 558.1969 552.46875 558.525Q552.7031 558.85315 552.7969 559.29065Q552.84375 559.5875 552.84375 560.3219L552.84375 564.15L551.7969 564.15L551.7969 560.3688Q551.7969 559.7125 551.6719 559.4Q551.5469 559.0875 551.2344 558.9Q550.9219 558.6969 550.5 558.6969Q549.8281 558.6969 549.3281 559.1344Q548.84375 559.5563 548.84375 560.7438L548.84375 564.15L547.7969 564.15Z" fill-rule="nonzero"/><path fill="#000000" d="M40.850025 337.61874L34.631275 337.61874L34.631275 336.66562L35.568775 336.66562Q34.912525 336.30624 34.7094 336.00937Q34.49065 335.69687 34.49065 335.32187Q34.49065 334.79062 34.818775 334.24374L35.80315 334.60312Q35.568775 334.99374 35.568775 335.36874Q35.568775 335.72812 35.787525 336.00937Q35.99065 336.275 36.36565 336.38437Q36.92815 336.57187 37.5844 336.57187L40.850025 336.57187L40.850025 337.61874ZM39.912525 331.30624L40.8344 331.15Q40.92815 331.60312 40.92815 331.94687Q40.92815 332.525 40.756275 332.8375Q40.568775 333.15 40.2719 333.29062Q39.975025 333.41562 39.0219 333.41562L35.443775 333.41562L35.443775 334.18124L34.631275 334.18124L34.631275 333.41562L33.0844 333.41562L32.4594 332.36874L34.631275 332.36874L34.631275 331.30624L35.443775 331.30624L35.443775 332.36874L39.0844 332.36874Q39.537525 332.36874 39.662525 332.32187Q39.787525 332.25937 39.86565 332.13437Q39.943775 332.00937 39.943775 331.775Q39.943775 331.5875 39.912525 331.30624ZM39.912525 328.30624L40.8344 328.15Q40.92815 328.60312 40.92815 328.94687Q40.92815 329.525 40.756275 329.8375Q40.568775 330.15 40.2719 330.29062Q39.975025 330.41562 39.0219 330.41562L35.443775 330.41562L35.443775 331.18124L34.631275 331.18124L34.631275 330.41562L33.0844 330.41562L32.4594 329.36874L34.631275 329.36874L34.631275 328.30624L35.443775 328.30624L35.443775 329.36874L39.0844 329.36874Q39.537525 329.36874 39.662525 329.32187Q39.787525 329.25937 39.86565 329.13437Q39.943775 329.00937 39.943775 328.775Q39.943775 328.5875 39.912525 328.30624ZM40.850025 324.60312L34.631275 324.60312L34.631275 323.66562L35.506275 323.66562Q35.037525 323.36874 34.7719 322.88437Q34.49065 322.4 34.49065 321.775Q34.49065 321.0875 34.7719 320.65Q35.05315 320.19687 35.568775 320.025Q34.49065 319.275 34.49065 318.10312Q34.49065 317.16562 35.006275 316.68124Q35.506275 316.18124 36.5844 316.18124L40.850025 316.18124L40.850025 317.22812L36.92815 317.22812Q36.30315 317.22812 36.0219 317.3375Q35.74065 317.43124 35.568775 317.69687Q35.3969 317.9625 35.3969 318.3375Q35.3969 318.99374 35.8344 319.43124Q36.2719 319.85312 37.24065 319.85312L40.850025 319.85312L40.850025 320.91562L36.80315 320.91562Q36.100025 320.91562 35.756275 321.18124Q35.3969 321.43124 35.3969 322.00937Q35.3969 322.4625 35.631275 322.8375Q35.86565 323.2125 36.318775 323.38437Q36.7719 323.55624 37.61565 323.55624L40.850025 323.55624L40.850025 324.60312ZM33.475025 313.60312L32.256275 313.60312L32.256275 312.54062L33.475025 312.54062L33.475025 313.60312ZM40.850025 313.60312L34.631275 313.60312L34.631275 312.54062L40.850025 312.54062L40.850025 313.60312ZM40.850025 310.60312L34.631275 310.60312L34.631275 309.66562L35.506275 309.66562Q34.49065 308.97812 34.49065 307.68124Q34.49065 307.11874 34.693775 306.65Q34.8969 306.16562 35.225025 305.93124Q35.55315 305.69687 35.99065 305.60312Q36.287525 305.55624 37.0219 305.55624L40.850025 305.55624L40.850025 306.60312L37.068775 306.60312Q36.412525 306.60312 36.100025 306.72812Q35.787525 306.85312 35.600025 307.16562Q35.3969 307.47812 35.3969 307.9Q35.3969 308.57187 35.8344 309.07187Q36.256275 309.55624 37.443775 309.55624L40.850025 309.55624L40.850025 310.60312Z" fill-rule="nonzero"/><path fill="#000000" d="M74.89687 512.0722L74.89687 513.0878L69.20937 513.0878Q69.20937 512.7128 69.33437 512.35345Q69.55312 511.77533 70.02187 511.21283Q70.50625 510.65033 71.4125 509.91595Q72.81875 508.7597 73.30312 508.08783Q73.80312 507.41595 73.80312 506.8222Q73.80312 506.1972 73.35 505.77533Q72.89687 505.33783 72.17812 505.33783Q71.4125 505.33783 70.95937 505.79095Q70.50625 506.24408 70.49062 507.05658L69.4125 506.9472Q69.52187 505.72845 70.24062 505.10345Q70.975 504.46283 72.20937 504.46283Q73.44375 504.46283 74.1625 505.15033Q74.88125 505.83783 74.88125 506.85345Q74.88125 507.36908 74.6625 507.86908Q74.45937 508.35345 73.95937 508.91595Q73.475 509.46283 72.35 510.41595Q71.39687 511.21283 71.11562 511.5097Q70.85 511.79095 70.67812 512.0722L74.89687 512.0722ZM76.50625 511.10345L77.52187 511.0097Q77.64687 511.72845 78.00625 512.0566Q78.38125 512.3691 78.94375 512.3691Q79.42812 512.3691 79.7875 512.1503Q80.1625 511.91595 80.39687 511.55658Q80.63125 511.18158 80.7875 510.55658Q80.94375 509.91595 80.94375 509.2597Q80.94375 509.18158 80.94375 509.04095Q80.63125 509.54095 80.08437 509.86908Q79.5375 510.18158 78.89687 510.18158Q77.81875 510.18158 77.08437 509.41595Q76.35 508.6347 76.35 507.36908Q76.35 506.05658 77.11562 505.2597Q77.89687 504.46283 79.05312 504.46283Q79.88125 504.46283 80.56875 504.91595Q81.27187 505.36908 81.63125 506.21283Q81.99062 507.04095 81.99062 508.61908Q81.99062 510.2597 81.63125 511.24408Q81.2875 512.2128 80.56875 512.72845Q79.86562 513.22845 78.92812 513.22845Q77.9125 513.22845 77.27187 512.6816Q76.63125 512.1191 76.50625 511.10345ZM80.81875 507.30658Q80.81875 506.40033 80.33437 505.86908Q79.86562 505.33783 79.17812 505.33783Q78.475 505.33783 77.94375 505.91595Q77.42812 506.47845 77.42812 507.40033Q77.42812 508.21283 77.92812 508.72845Q78.42812 509.24408 79.14687 509.24408Q79.88125 509.24408 80.35 508.72845Q80.81875 508.21283 80.81875 507.30658Z" fill-rule="nonzero"/><path fill="#000000" d="M69.35 379.34293L70.4125 379.2023Q70.58437 380.09293 71.02187 380.49918Q71.45937 380.8898 72.08437 380.8898Q72.83437 380.8898 73.35 380.37418Q73.86562 379.85855 73.86562 379.09293Q73.86562 378.37418 73.38125 377.90543Q72.9125 377.42105 72.17812 377.42105Q71.88125 377.42105 71.42812 377.54605L71.55312 376.60855Q71.6625 376.62418 71.725 376.62418Q72.39687 376.62418 72.92812 376.28043Q73.475 375.92105 73.475 375.18668Q73.475 374.60855 73.08437 374.23355Q72.69375 373.84293 72.06875 373.84293Q71.45937 373.84293 71.0375 374.23355Q70.63125 374.62418 70.52187 375.3898L69.45937 375.2023Q69.64687 374.15543 70.33437 373.5773Q71.02187 372.98355 72.0375 372.98355Q72.74062 372.98355 73.33437 373.29605Q73.92812 373.59293 74.24062 374.10855Q74.55312 374.62418 74.55312 375.21793Q74.55312 375.7648 74.25625 376.23355Q73.95937 376.68668 73.38125 376.9523Q74.13125 377.12418 74.55312 377.68668Q74.975 378.23355 74.975 379.0773Q74.975 380.2023 74.14687 380.98355Q73.33437 381.7648 72.08437 381.7648Q70.95937 381.7648 70.20937 381.09293Q69.45937 380.40543 69.35 379.34293ZM80.31875 381.60855L79.27187 381.60855L79.27187 374.8898Q78.88125 375.24918 78.25625 375.62418Q77.64687 375.98355 77.1625 376.15543L77.1625 375.1398Q78.0375 374.71793 78.69375 374.1398Q79.36562 373.54605 79.64687 372.98355L80.31875 372.98355L80.31875 381.60855Z" fill-rule="nonzero"/><path fill="#000000" d="M69.35 247.86365L70.4125 247.72302Q70.58437 248.61365 71.02187 249.0199Q71.45937 249.41052 72.08437 249.41052Q72.83437 249.41052 73.35 248.8949Q73.86562 248.37927 73.86562 247.61365Q73.86562 246.8949 73.38125 246.42615Q72.9125 245.94177 72.17812 245.94177Q71.88125 245.94177 71.42812 246.06677L71.55312 245.12927Q71.6625 245.1449 71.725 245.1449Q72.39687 245.1449 72.92812 244.80115Q73.475 244.44177 73.475 243.7074Q73.475 243.12927 73.08437 242.75427Q72.69375 242.36365 72.06875 242.36365Q71.45937 242.36365 71.0375 242.75427Q70.63125 243.1449 70.52187 243.91052L69.45937 243.72302Q69.64687 242.67615 70.33437 242.09802Q71.02187 241.50427 72.0375 241.50427Q72.74062 241.50427 73.33437 241.81677Q73.92812 242.11365 74.24062 242.62927Q74.55312 243.1449 74.55312 243.73865Q74.55312 244.28552 74.25625 244.75427Q73.95937 245.2074 73.38125 245.47302Q74.13125 245.6449 74.55312 246.2074Q74.975 246.75427 74.975 247.59802Q74.975 248.72302 74.14687 249.50427Q73.33437 250.28552 72.08437 250.28552Q70.95937 250.28552 70.20937 249.61365Q69.45937 248.92615 69.35 247.86365ZM76.35 247.86365L77.4125 247.72302Q77.58437 248.61365 78.02187 249.0199Q78.45937 249.41052 79.08437 249.41052Q79.83437 249.41052 80.35 248.8949Q80.86562 248.37927 80.86562 247.61365Q80.86562 246.8949 80.38125 246.42615Q79.9125 245.94177 79.17812 245.94177Q78.88125 245.94177 78.42812 246.06677L78.55312 245.12927Q78.6625 245.1449 78.725 245.1449Q79.39687 245.1449 79.92812 244.80115Q80.475 244.44177 80.475 243.7074Q80.475 243.12927 80.08437 242.75427Q79.69375 242.36365 79.06875 242.36365Q78.45937 242.36365 78.0375 242.75427Q77.63125 243.1449 77.52187 243.91052L76.45937 243.72302Q76.64687 242.67615 77.33437 242.09802Q78.02187 241.50427 79.0375 241.50427Q79.74062 241.50427 80.33437 241.81677Q80.92812 242.11365 81.24062 242.62927Q81.55312 243.1449 81.55312 243.73865Q81.55312 244.28552 81.25625 244.75427Q80.95937 245.2074 80.38125 245.47302Q81.13125 245.6449 81.55312 246.2074Q81.975 246.75427 81.975 247.59802Q81.975 248.72302 81.14687 249.50427Q80.33437 250.28552 79.08437 250.28552Q77.95937 250.28552 77.20937 249.61365Q76.45937 248.92615 76.35 247.86365Z" fill-rule="nonzero"/><path fill="#000000" d="M69.35 116.38438L70.4125 116.24375Q70.58437 117.13438 71.02187 117.54063Q71.45937 117.93125 72.08437 117.93125Q72.83437 117.93125 73.35 117.41563Q73.86562 116.9 73.86562 116.13438Q73.86562 115.41563 73.38125 114.94688Q72.9125 114.4625 72.17812 114.4625Q71.88125 114.4625 71.42812 114.5875L71.55312 113.65Q71.6625 113.66563 71.725 113.66563Q72.39687 113.66563 72.92812 113.32188Q73.475 112.9625 73.475 112.22813Q73.475 111.65 73.08437 111.275Q72.69375 110.88438 72.06875 110.88438Q71.45937 110.88438 71.0375 111.275Q70.63125 111.66563 70.52187 112.43125L69.45937 112.24375Q69.64687 111.19688 70.33437 110.61875Q71.02187 110.025 72.0375 110.025Q72.74062 110.025 73.33437 110.3375Q73.92812 110.63438 74.24062 111.15Q74.55312 111.66563 74.55312 112.25938Q74.55312 112.80625 74.25625 113.275Q73.95937 113.72813 73.38125 113.99375Q74.13125 114.16563 74.55312 114.72813Q74.975 115.275 74.975 116.11875Q74.975 117.24375 74.14687 118.025Q73.33437 118.80625 72.08437 118.80625Q70.95937 118.80625 70.20937 118.13438Q69.45937 117.44688 69.35 116.38438ZM76.35 116.4L77.45937 116.30625Q77.58437 117.11875 78.02187 117.525Q78.475 117.93125 79.11562 117.93125Q79.86562 117.93125 80.39687 117.35313Q80.92812 116.775 80.92812 115.8375Q80.92812 114.93125 80.4125 114.41563Q79.9125 113.88438 79.08437 113.88438Q78.58437 113.88438 78.1625 114.11875Q77.75625 114.35313 77.52187 114.7125L76.5375 114.5875L77.36562 110.18125L81.64687 110.18125L81.64687 111.18125L78.20937 111.18125L77.75625 113.49375Q78.52187 112.94688 79.36562 112.94688Q80.49062 112.94688 81.25625 113.72813Q82.0375 114.50938 82.0375 115.74375Q82.0375 116.9 81.36562 117.75938Q80.5375 118.79063 79.11562 118.79063Q77.94375 118.79063 77.19375 118.13438Q76.45937 117.47813 76.35 116.4Z" fill-rule="nonzero"/><path fill="#000000" d="M89.16582 524.197Q88.40019 522.8709 88.209885 521.9163Q88.01177 520.9482 88.289505 520.21045Q88.58077 519.46497 89.39267 518.9962Q89.98806 518.65247 90.57523 518.6382Q91.175934 518.61615 91.73925 518.90436Q92.29476 519.179 92.832146 519.7348Q93.36952 520.2905 94.01015 521.40015Q94.76796 522.7127 94.95827 523.66736Q95.1621 524.61414 94.87865 525.37317Q94.600914 526.1109 93.77548 526.58746Q92.70648 527.20465 91.63871 526.7927Q90.376755 526.29443 89.16582 524.197ZM90.0995 523.65796Q91.15419 525.48474 91.93877 525.8436Q92.723335 526.2026 93.345795 525.8432Q93.98178 525.476 94.0497 524.6249Q94.13115 523.766 93.07646 521.9392Q92.01396 520.0989 91.2372 519.75354Q90.466156 519.3868 89.816635 519.7618Q89.19418 520.12115 89.11998 520.8676Q89.037 521.8176 90.0995 523.65796Z" fill-rule="nonzero"/><path fill="#000000" d="M360.46698 532.9155L361.38086 532.27966Q361.89536 532.92084 362.47736 533.0539Q363.0729 533.17914 363.62772 532.8588Q364.27722 532.4838 364.44824 531.7175Q364.61926 530.95123 364.1505 530.13934Q363.6974 529.3545 362.993 529.1658Q362.29437 528.9557 361.5772 529.36975Q361.1442 529.61975 360.89603 530.0337Q360.66138 530.43976 360.6381 530.86816L359.7231 531.25214L358.23715 527.02216L361.94482 524.88153L362.44482 525.74756L359.46786 527.4663L360.2317 529.69556Q360.6213 528.8391 361.35202 528.41724Q362.3263 527.85474 363.37997 528.1485Q364.44717 528.43445 365.06436 529.5035Q365.6425 530.5048 365.49033 531.58496Q365.28876 532.89215 364.0574 533.6031Q363.0425 534.189 362.06488 533.99567Q361.10077 533.79456 360.46698 532.9155ZM365.53696 527.697Q364.77133 526.3709 364.58102 525.4163Q364.38293 524.4482 364.66064 523.71045Q364.95193 522.96497 365.76382 522.4962Q366.35922 522.15247 366.94638 522.1382Q367.5471 522.11615 368.1104 522.40436Q368.66592 522.679 369.20328 523.2348Q369.74066 523.7905 370.3813 524.90015Q371.1391 526.2127 371.3294 527.16736Q371.53326 528.11414 371.2498 528.87317Q370.97208 529.6109 370.14664 530.08746Q369.07764 530.70465 368.00986 530.2927Q366.7479 529.79443 365.53696 527.697ZM366.47064 527.15796Q367.52533 528.98474 368.3099 529.3436Q369.09448 529.7026 369.71695 529.3432Q370.35294 528.976 370.42084 528.1249Q370.5023 527.266 369.4476 525.4392Q368.3851 523.5989 367.60834 523.25354Q366.8373 522.8868 366.18777 523.2618Q365.56534 523.62115 365.49112 524.3676Q365.40814 525.3176 366.47064 527.15796ZM371.59915 524.197Q370.83353 522.8709 370.64322 521.9163Q370.4451 520.9482 370.72284 520.21045Q371.0141 519.46497 371.826 518.9962Q372.4214 518.65247 373.00854 518.6382Q373.60925 518.61615 374.17258 518.90436Q374.7281 519.179 375.26547 519.7348Q375.80286 520.2905 376.44348 521.40015Q377.2013 522.7127 377.3916 523.66736Q377.59543 524.61414 377.31198 525.37317Q377.03424 526.1109 376.2088 526.58746Q375.1398 527.20465 374.07205 526.7927Q372.8101 526.29443 371.59915 524.197ZM372.53284 523.65796Q373.58752 525.48474 374.3721 525.8436Q375.15668 526.2026 375.7791 525.8432Q376.4151 525.476 376.48303 524.6249Q376.56448 523.766 375.5098 521.9392Q374.4473 520.0989 373.67053 519.75354Q372.89948 519.3868 372.24997 519.7618Q371.6275 520.12115 371.5533 520.8676Q371.47034 521.8176 372.53284 523.65796Z" fill-rule="nonzero"/><path fill="#000000" d="M641.4002 536.3797L640.4936 536.90314L637.1342 531.08453Q636.9756 531.59106 636.6218 532.22833Q636.27374 532.84424 635.94025 533.2353L635.43243 532.3557Q635.97925 531.55286 636.25854 530.72406Q636.5435 529.87396 636.5058 529.24615L637.0877 528.9102L641.4002 536.3797ZM641.90814 531.197Q641.1425 529.8709 640.9522 528.9163Q640.7541 527.9481 641.0318 527.21045Q641.3231 526.4649 642.135 525.99615Q642.7304 525.6524 643.31757 525.6382Q643.9183 525.61615 644.48157 525.90436Q645.0371 526.179 645.57446 526.7348Q646.1118 527.2905 646.75244 528.40015Q647.51025 529.7127 647.70056 530.6673Q647.9044 531.61414 647.621 532.37317Q647.34326 533.1109 646.5178 533.58746Q645.4488 534.20465 644.38104 533.7927Q643.1191 533.29443 641.90814 531.197ZM642.8418 530.65796Q643.8965 532.48474 644.6811 532.8436Q645.46564 533.2026 646.08813 532.8432Q646.7241 532.476 646.792 531.6249Q646.8735 530.766 645.8188 528.9392Q644.7563 527.0989 643.9795 526.7535Q643.2085 526.3868 642.55896 526.7618Q641.9365 527.12115 641.8623 527.8676Q641.7793 528.8176 642.8418 530.65796ZM647.97034 527.697Q647.2047 526.3709 647.0144 525.4163Q646.8163 524.4481 647.094 523.71045Q647.38525 522.9649 648.19714 522.49615Q648.79254 522.1524 649.3797 522.1382Q649.9804 522.11615 650.54376 522.40436Q651.09924 522.679 651.63666 523.2348Q652.174 523.7905 652.81464 524.90015Q653.57245 526.2127 653.76276 527.1673Q653.9666 528.11414 653.68317 528.87317Q653.4054 529.6109 652.57996 530.08746Q651.511 530.70465 650.44324 530.2927Q649.1813 529.79443 647.97034 527.697ZM648.904 527.15796Q649.9587 528.98474 650.7433 529.3436Q651.52783 529.7026 652.15027 529.3432Q652.78625 528.976 652.8542 528.1249Q652.93567 527.266 651.881 525.4392Q650.8185 523.5989 650.0417 523.2535Q649.2706 522.8868 648.62115 523.2618Q647.99866 523.62115 647.9245 524.3676Q647.8415 525.3176 648.904 527.15796ZM654.0325 524.197Q653.26685 522.8709 653.07654 521.9163Q652.8784 520.9481 653.1562 520.21045Q653.44745 519.4649 654.25934 518.99615Q654.85474 518.6524 655.4419 518.6382Q656.0426 518.61615 656.60596 518.90436Q657.16144 519.179 657.6988 519.7348Q658.2362 520.2905 658.87683 521.40015Q659.63464 522.7127 659.82495 523.6673Q660.02875 524.61414 659.7453 525.37317Q659.4676 526.1109 658.64215 526.58746Q657.5732 527.20465 656.5054 526.7927Q655.2434 526.29443 654.0325 524.197ZM654.9662 523.65796Q656.0209 525.48474 656.8054 525.8436Q657.59 526.2026 658.21246 525.8432Q658.84845 525.476 658.9164 524.6249Q658.9978 523.766 657.9431 521.9392Q656.8806 520.0989 656.1039 519.7535Q655.3328 519.3868 654.6833 519.7618Q654.06085 520.12115 653.98663 520.8676Q653.9037 521.8176 654.9662 523.65796Z" fill-rule="nonzero"/><path fill="#000000" d="M923.83356 536.3797L922.92694 536.90314L919.56757 531.08453Q919.40894 531.59106 919.0552 532.22833Q918.7071 532.84424 918.3736 533.2353L917.8658 532.3557Q918.4126 531.55286 918.6919 530.72406Q918.97687 529.87396 918.93915 529.24615L919.52106 528.9102L923.83356 536.3797ZM925.3337 532.9155L926.24756 532.27966Q926.762 532.9208 927.34406 533.0539Q927.9396 533.17914 928.4944 532.8588Q929.1439 532.4838 929.31494 531.7175Q929.48596 530.95123 929.0172 530.13934Q928.5641 529.3545 927.85974 529.1658Q927.1611 528.9557 926.4439 529.36975Q926.01086 529.61975 925.7627 530.0336Q925.5281 530.43976 925.5048 530.86816L924.5898 531.2521L923.1039 527.0221L926.8115 524.8815L927.3115 525.7475L924.33453 527.46625L925.0984 529.6955Q925.48804 528.8391 926.2187 528.41724Q927.193 527.85474 928.24664 528.1485Q929.3139 528.43445 929.9311 529.5034Q930.5092 530.50476 930.357 531.58496Q930.15546 532.8921 928.9241 533.603Q927.90924 534.18896 926.9316 533.99567Q925.96747 533.7945 925.3337 532.9155ZM930.4037 527.697Q929.63806 526.3709 929.44775 525.41626Q929.24963 524.4481 929.52734 523.71045Q929.8186 522.9649 930.6305 522.49615Q931.2259 522.1524 931.81305 522.1382Q932.41376 522.11615 932.9771 522.40436Q933.5326 522.679 934.07 523.23474Q934.60736 523.7905 935.248 524.90015Q936.0058 526.2127 936.1961 527.1673Q936.39996 528.11414 936.1165 528.87317Q935.83875 529.61084 935.0133 530.0874Q933.94434 530.7046 932.8766 530.29266Q931.6146 529.79443 930.4037 527.697ZM931.33734 527.15796Q932.392 528.98474 933.17664 529.3436Q933.9612 529.7026 934.5836 529.3432Q935.2196 528.976 935.28754 528.1249Q935.369 527.266 934.31433 525.4392Q933.25183 523.5989 932.47504 523.2535Q931.704 522.8868 931.0545 523.2618Q930.432 523.62115 930.35785 524.3676Q930.27484 525.3176 931.33734 527.15796ZM936.4658 524.197Q935.7002 522.8709 935.5099 521.91626Q935.31177 520.9481 935.58954 520.21045Q935.8808 519.4649 936.6927 518.99615Q937.2881 518.6524 937.87524 518.6382Q938.47595 518.61615 939.0393 518.90436Q939.5948 519.179 940.13214 519.73474Q940.66956 520.2905 941.3102 521.40015Q942.068 522.7127 942.2583 523.6673Q942.4621 524.61414 942.17865 525.37317Q941.90094 526.11084 941.0755 526.5874Q940.00653 527.2046 938.9387 526.79266Q937.67676 526.29443 936.4658 524.197ZM937.39954 523.65796Q938.4542 525.48474 939.2388 525.8436Q940.0234 526.2026 940.6458 525.8432Q941.2818 525.476 941.34973 524.6249Q941.43115 523.766 940.37646 521.9392Q939.31396 520.0989 938.53723 519.7535Q937.7662 519.3868 937.11664 519.7618Q936.4942 520.12115 936.42 520.8676Q936.33704 521.8176 937.39954 523.65796Z" fill-rule="nonzero"/><path stroke="#4285f4" stroke-width="4.0" stroke-linecap="butt" d="M389.5 80.75L401.5 80.75" fill-rule="nonzero"/><path fill="#1a1a1a" d="M410.28125 84.75L410.28125 78.53125L411.23438 78.53125L411.23438 79.46875Q411.59375 78.8125 411.89062 78.609375Q412.20312 78.390625 412.57812 78.390625Q413.10938 78.390625 413.65625 78.71875L413.29688 79.703125Q412.90625 79.46875 412.53125 79.46875Q412.17188 79.46875 411.89062 79.6875Q411.625 79.890625 411.51562 80.265625Q411.32812 80.828125 411.32812 81.484375L411.32812 84.75L410.28125 84.75ZM416.59375 83.8125L416.75 84.734375Q416.29688 84.828125 415.95312 84.828125Q415.375 84.828125 415.0625 84.65625Q414.75 84.46875 414.60938 84.171875Q414.48438 83.875 414.48438 82.921875L414.48438 79.34375L413.71875 79.34375L413.71875 78.53125L414.48438 78.53125L414.48438 76.984375L415.53125 76.359375L415.53125 78.53125L416.59375 78.53125L416.59375 79.34375L415.53125 79.34375L415.53125 82.984375Q415.53125 83.4375 415.57812 83.5625Q415.64062 83.6875 415.76562 83.765625Q415.89062 83.84375 416.125 83.84375Q416.3125 83.84375 416.59375 83.8125ZM419.59375 83.8125L419.75 84.734375Q419.29688 84.828125 418.95312 84.828125Q418.375 84.828125 418.0625 84.65625Q417.75 84.46875 417.60938 84.171875Q417.48438 83.875 417.48438 82.921875L417.48438 79.34375L416.71875 79.34375L416.71875 78.53125L417.48438 78.53125L417.48438 76.984375L418.53125 76.359375L418.53125 78.53125L419.59375 78.53125L419.59375 79.34375L418.53125 79.34375L418.53125 82.984375Q418.53125 83.4375 418.57812 83.5625Q418.64062 83.6875 418.76562 83.765625Q418.89062 83.84375 419.125 83.84375Q419.3125 83.84375 419.59375 83.8125ZM423.29688 84.75L423.29688 78.53125L424.23438 78.53125L424.23438 79.40625Q424.53125 78.9375 425.01562 78.671875Q425.5 78.390625 426.125 78.390625Q426.8125 78.390625 427.25 78.671875Q427.70312 78.953125 427.875 79.46875Q428.625 78.390625 429.79688 78.390625Q430.73438 78.390625 431.21875 78.90625Q431.71875 79.40625 431.71875 80.484375L431.71875 84.75L430.67188 84.75L430.67188 80.828125Q430.67188 80.203125 430.5625 79.921875Q430.46875 79.640625 430.20312 79.46875Q429.9375 79.296875 429.5625 79.296875Q428.90625 79.296875 428.46875 79.734375Q428.04688 80.171875 428.04688 81.140625L428.04688 84.75L426.98438 84.75L426.98438 80.703125Q426.98438 80.0 426.71875 79.65625Q426.46875 79.296875 425.89062 79.296875Q425.4375 79.296875 425.0625 79.53125Q424.6875 79.765625 424.51562 80.21875Q424.34375 80.671875 424.34375 81.515625L424.34375 84.75L423.29688 84.75ZM434.29688 77.375L434.29688 76.15625L435.35938 76.15625L435.35938 77.375L434.29688 77.375ZM434.29688 84.75L434.29688 78.53125L435.35938 78.53125L435.35938 84.75L434.29688 84.75ZM437.29688 84.75L437.29688 78.53125L438.23438 78.53125L438.23438 79.40625Q438.92188 78.390625 440.21875 78.390625Q440.78125 78.390625 441.25 78.59375Q441.73438 78.796875 441.96875 79.125Q442.20312 79.453125 442.29688 79.890625Q442.34375 80.1875 442.34375 80.921875L442.34375 84.75L441.29688 84.75L441.29688 80.96875Q441.29688 80.3125 441.17188 80.0Q441.04688 79.6875 440.73438 79.5Q440.42188 79.296875 440.0 79.296875Q439.32812 79.296875 438.82812 79.734375Q438.34375 80.15625 438.34375 81.34375L438.34375 84.75L437.29688 84.75Z" fill-rule="nonzero"/><path stroke="#ea4335" stroke-width="4.0" stroke-linecap="butt" stroke-opacity="0.4" d="M459.5 80.75L471.5 80.75" fill-rule="nonzero"/><path fill="#1a1a1a" d="M483.375 84.75L483.375 82.6875L479.65625 82.6875L479.65625 81.71875L483.57812 76.15625L484.4375 76.15625L484.4375 81.71875L485.59375 81.71875L485.59375 82.6875L484.4375 82.6875L484.4375 84.75L483.375 84.75ZM483.375 81.71875L483.375 77.859375L480.6875 81.71875L483.375 81.71875ZM487.5625 84.75L487.5625 83.546875L488.76562 83.546875L488.76562 84.75Q488.76562 85.40625 488.53125 85.8125Q488.29688 86.234375 487.79688 86.453125L487.5 86.0Q487.82812 85.859375 487.98438 85.5625Q488.14062 85.28125 488.17188 84.75L487.5625 84.75ZM490.0 82.484375L491.0625 82.34375Q491.23438 83.234375 491.67188 83.640625Q492.10938 84.03125 492.73438 84.03125Q493.48438 84.03125 494.0 83.515625Q494.51562 83.0 494.51562 82.234375Q494.51562 81.515625 494.03125 81.046875Q493.5625 80.5625 492.82812 80.5625Q492.53125 80.5625 492.07812 80.6875L492.20312 79.75Q492.3125 79.765625 492.375 79.765625Q493.04688 79.765625 493.57812 79.421875Q494.125 79.0625 494.125 78.328125Q494.125 77.75 493.73438 77.375Q493.34375 76.984375 492.71875 76.984375Q492.10938 76.984375 491.6875 77.375Q491.28125 77.765625 491.17188 78.53125L490.10938 78.34375Q490.29688 77.296875 490.98438 76.71875Q491.67188 76.125 492.6875 76.125Q493.39062 76.125 493.98438 76.4375Q494.57812 76.734375 494.89062 77.25Q495.20312 77.765625 495.20312 78.359375Q495.20312 78.90625 494.90625 79.375Q494.60938 79.828125 494.03125 80.09375Q494.78125 80.265625 495.20312 80.828125Q495.625 81.375 495.625 82.21875Q495.625 83.34375 494.79688 84.125Q493.98438 84.90625 492.73438 84.90625Q491.60938 84.90625 490.85938 84.234375Q490.10938 83.546875 490.0 82.484375ZM497.15625 82.765625L498.17188 82.671875Q498.29688 83.390625 498.65625 83.71875Q499.03125 84.03125 499.59375 84.03125Q500.07812 84.03125 500.4375 83.8125Q500.8125 83.578125 501.04688 83.21875Q501.28125 82.84375 501.4375 82.21875Q501.59375 81.578125 501.59375 80.921875Q501.59375 80.84375 501.59375 80.703125Q501.28125 81.203125 500.73438 81.53125Q500.1875 81.84375 499.54688 81.84375Q498.46875 81.84375 497.73438 81.078125Q497.0 80.296875 497.0 79.03125Q497.0 77.71875 497.76562 76.921875Q498.54688 76.125 499.70312 76.125Q500.53125 76.125 501.21875 76.578125Q501.92188 77.03125 502.28125 77.875Q502.64062 78.703125 502.64062 80.28125Q502.64062 81.921875 502.28125 82.90625Q501.9375 83.875 501.21875 84.390625Q500.51562 84.890625 499.57812 84.890625Q498.5625 84.890625 497.92188 84.34375Q497.28125 83.78125 497.15625 82.765625ZM501.46875 78.96875Q501.46875 78.0625 500.98438 77.53125Q500.51562 77.0 499.82812 77.0Q499.125 77.0 498.59375 77.578125Q498.07812 78.140625 498.07812 79.0625Q498.07812 79.875 498.57812 80.390625Q499.07812 80.90625 499.79688 80.90625Q500.53125 80.90625 501.0 80.390625Q501.46875 79.875 501.46875 78.96875ZM504.45312 84.75L504.45312 76.15625L510.65625 76.15625L510.65625 77.171875L505.59375 77.171875L505.59375 79.796875L510.34375 79.796875L510.34375 80.8125L505.59375 80.8125L505.59375 83.734375L510.85938 83.734375L510.85938 84.75L504.45312 84.75ZM511.875 82.171875L511.875 81.109375L515.125 81.109375L515.125 82.171875L511.875 82.171875ZM516.0 80.515625Q516.0 78.984375 516.3125 78.0625Q516.625 77.125 517.2344 76.625Q517.8594 76.125 518.7969 76.125Q519.4844 76.125 520.0 76.40625Q520.53125 76.6875 520.875 77.21875Q521.21875 77.734375 521.40625 78.484375Q521.59375 79.234375 521.59375 80.515625Q521.59375 82.03125 521.28125 82.953125Q520.9844 83.875 520.3594 84.390625Q519.75 84.890625 518.7969 84.890625Q517.5625 84.890625 516.84375 84.0Q516.0 82.9375 516.0 80.515625ZM517.0781 80.515625Q517.0781 82.625 517.5781 83.328125Q518.0781 84.03125 518.7969 84.03125Q519.53125 84.03125 520.0156 83.328125Q520.5156 82.625 520.5156 80.515625Q520.5156 78.390625 520.0156 77.703125Q519.53125 77.0 518.78125 77.0Q518.0625 77.0 517.625 77.609375Q517.0781 78.390625 517.0781 80.515625ZM526.375 84.75L526.375 82.6875L522.65625 82.6875L522.65625 81.71875L526.5781 76.15625L527.4375 76.15625L527.4375 81.71875L528.59375 81.71875L528.59375 82.6875L527.4375 82.6875L527.4375 84.75L526.375 84.75ZM526.375 81.71875L526.375 77.859375L523.6875 81.71875L526.375 81.71875ZM529.875 77.734375L530.1406 76.90625Q531.0781 77.234375 531.5 77.46875Q531.3906 76.40625 531.375 76.015625L532.2344 76.015625Q532.21875 76.59375 532.09375 77.46875Q532.7031 77.15625 533.4844 76.90625L533.75 77.734375Q533.0 77.984375 532.2969 78.0625Q532.6406 78.375 533.2969 79.171875L532.59375 79.671875Q532.25 79.203125 531.7969 78.40625Q531.3594 79.234375 531.03125 79.671875L530.34375 79.171875Q531.0156 78.328125 531.3125 78.0625Q530.5625 77.921875 529.875 77.734375ZM534.59375 84.75L536.8594 81.515625L534.7656 78.53125L536.0781 78.53125L537.03125 79.984375Q537.2969 80.40625 537.46875 80.6875Q537.71875 80.296875 537.9375 80.0L538.9844 78.53125L540.25 78.53125L538.09375 81.453125L540.40625 84.75L539.125 84.75L537.84375 82.8125L537.5 82.296875L535.8594 84.75L534.59375 84.75ZM545.5 83.359375L545.5 81.0L543.1719 81.0L543.1719 80.015625L545.5 80.015625L545.5 77.6875L546.5 77.6875L546.5 80.015625L548.84375 80.015625L548.84375 81.0L546.5 81.0L546.5 83.359375L545.5 83.359375ZM553.0 82.484375L554.0625 82.34375Q554.2344 83.234375 554.6719 83.640625Q555.1094 84.03125 555.7344 84.03125Q556.4844 84.03125 557.0 83.515625Q557.5156 83.0 557.5156 82.234375Q557.5156 81.515625 557.03125 81.046875Q556.5625 80.5625 555.8281 80.5625Q555.53125 80.5625 555.0781 80.6875L555.2031 79.75Q555.3125 79.765625 555.375 79.765625Q556.0469 79.765625 556.5781 79.421875Q557.125 79.0625 557.125 78.328125Q557.125 77.75 556.7344 77.375Q556.34375 76.984375 555.71875 76.984375Q555.1094 76.984375 554.6875 77.375Q554.28125 77.765625 554.1719 78.53125L553.1094 78.34375Q553.2969 77.296875 553.9844 76.71875Q554.6719 76.125 555.6875 76.125Q556.3906 76.125 556.9844 76.4375Q557.5781 76.734375 557.8906 77.25Q558.2031 77.765625 558.2031 78.359375Q558.2031 78.90625 557.90625 79.375Q557.6094 79.828125 557.03125 80.09375Q557.78125 80.265625 558.2031 80.828125Q558.625 81.375 558.625 82.21875Q558.625 83.34375 557.7969 84.125Q556.9844 84.90625 555.7344 84.90625Q554.6094 84.90625 553.8594 84.234375Q553.1094 83.546875 553.0 82.484375ZM563.96875 84.75L562.9219 84.75L562.9219 78.03125Q562.53125 78.390625 561.90625 78.765625Q561.2969 79.125 560.8125 79.296875L560.8125 78.28125Q561.6875 77.859375 562.34375 77.28125Q563.0156 76.6875 563.2969 76.125L563.96875 76.125L563.96875 84.75ZM567.5625 84.75L567.5625 83.546875L568.7656 83.546875L568.7656 84.75Q568.7656 85.40625 568.53125 85.8125Q568.2969 86.234375 567.7969 86.453125L567.5 86.0Q567.8281 85.859375 567.9844 85.5625Q568.1406 85.28125 568.1719 84.75L567.5625 84.75ZM575.46875 78.265625L574.4219 78.34375Q574.28125 77.71875 574.03125 77.4375Q573.59375 76.984375 572.96875 76.984375Q572.46875 76.984375 572.0781 77.265625Q571.59375 77.640625 571.2969 78.34375Q571.0156 79.03125 571.0 80.3125Q571.375 79.734375 571.9219 79.453125Q572.4844 79.171875 573.09375 79.171875Q574.1406 79.171875 574.875 79.953125Q575.625 80.734375 575.625 81.953125Q575.625 82.765625 575.2656 83.46875Q574.9219 84.15625 574.3125 84.53125Q573.7031 84.890625 572.9375 84.890625Q571.6094 84.890625 570.78125 83.921875Q569.9531 82.953125 569.9531 80.734375Q569.9531 78.234375 570.875 77.109375Q571.6719 76.125 573.03125 76.125Q574.0469 76.125 574.6875 76.703125Q575.34375 77.265625 575.46875 78.265625ZM571.1719 81.96875Q571.1719 82.515625 571.3906 83.015625Q571.625 83.5 572.03125 83.765625Q572.4531 84.03125 572.9219 84.03125Q573.5781 84.03125 574.0625 83.5Q574.5469 82.953125 574.5469 82.03125Q574.5469 81.140625 574.0625 80.625Q573.59375 80.109375 572.875 80.109375Q572.15625 80.109375 571.65625 80.625Q571.1719 81.140625 571.1719 81.96875Z" fill-rule="nonzero"/><path fill="#757575" d="M31.146875 48.85L31.146875 38.475L32.725 38.475L32.725 40.053123Q33.334373 38.94375 33.85 38.6Q34.365623 38.240623 34.975 38.240623Q35.865623 38.240623 36.7875 38.803123L36.178123 40.44375Q35.5375 40.053123 34.896873 40.053123Q34.31875 40.053123 33.85 40.4125Q33.396873 40.75625 33.19375 41.365623Q32.9125 42.303123 32.9125 43.4125L32.9125 48.85L31.146875 48.85ZM42.00625 47.271873L42.25625 48.834373Q41.521873 48.990623 40.928123 48.990623Q39.975 48.990623 39.44375 48.69375Q38.928123 48.38125 38.709373 47.896873Q38.490623 47.396873 38.490623 45.81875L38.490623 39.85L37.209373 39.85L37.209373 38.475L38.490623 38.475L38.490623 35.9125L40.240623 34.85L40.240623 38.475L42.00625 38.475L42.00625 39.85L40.240623 39.85L40.240623 45.9125Q40.240623 46.6625 40.334373 46.88125Q40.428123 47.084373 40.63125 47.225Q40.85 47.35 41.240623 47.35Q41.521873 47.35 42.00625 47.271873ZM48.00625 47.271873L48.25625 48.834373Q47.521873 48.990623 46.928123 48.990623Q45.975 48.990623 45.44375 48.69375Q44.928123 48.38125 44.709373 47.896873Q44.490623 47.396873 44.490623 45.81875L44.490623 39.85L43.209373 39.85L43.209373 38.475L44.490623 38.475L44.490623 35.9125L46.240623 34.85L46.240623 38.475L48.00625 38.475L48.00625 39.85L46.240623 39.85L46.240623 45.9125Q46.240623 46.6625 46.334373 46.88125Q46.428123 47.084373 46.63125 47.225Q46.85 47.35 47.240623 47.35Q47.521873 47.35 48.00625 47.271873ZM56.1625 48.85L56.1625 38.475L57.740623 38.475L57.740623 39.928123Q58.225 39.178123 59.0375 38.709373Q59.85 38.240623 60.88125 38.240623Q62.0375 38.240623 62.771873 38.725Q63.50625 39.19375 63.81875 40.053123Q65.05312 38.240623 67.02187 38.240623Q68.56875 38.240623 69.39687 39.1Q70.225 39.959373 70.225 41.725L70.225 48.85L68.475 48.85L68.475 42.31875Q68.475 41.25625 68.30312 40.803123Q68.13125 40.334373 67.67812 40.053123Q67.24062 39.771873 66.63125 39.771873Q65.5375 39.771873 64.80312 40.50625Q64.08437 41.225 64.08437 42.81875L64.08437 48.85L62.334373 48.85L62.334373 42.115623Q62.334373 40.94375 61.896873 40.365623Q61.475 39.771873 60.490623 39.771873Q59.75625 39.771873 59.115623 40.1625Q58.490623 40.553123 58.209373 41.303123Q57.928123 42.053123 57.928123 43.475L57.928123 48.85L56.1625 48.85ZM72.17812 36.553123L72.17812 34.5375L73.94375 34.5375L73.94375 36.553123L72.17812 36.553123ZM72.17812 48.85L72.17812 38.475L73.94375 38.475L73.94375 48.85L72.17812 48.85ZM76.1625 48.85L76.1625 38.475L77.75625 38.475L77.75625 39.959373Q78.89687 38.240623 81.05312 38.240623Q81.99062 38.240623 82.77187 38.584373Q83.56875 38.9125 83.95937 39.459373Q84.35 40.00625 84.50625 40.75625Q84.6 41.25625 84.6 42.475L84.6 48.85L82.83437 48.85L82.83437 42.5375Q82.83437 41.459373 82.63125 40.928123Q82.42812 40.396873 81.89687 40.084373Q81.38125 39.771873 80.67812 39.771873Q79.55312 39.771873 78.74062 40.490623Q77.92812 41.19375 77.92812 43.178123L77.92812 48.85L76.1625 48.85ZM92.14687 48.85L92.14687 38.475L93.725 38.475L93.725 40.053123Q94.33437 38.94375 94.85 38.6Q95.36562 38.240623 95.975 38.240623Q96.86562 38.240623 97.7875 38.803123L97.17812 40.44375Q96.5375 40.053123 95.89687 40.053123Q95.31875 40.053123 94.85 40.4125Q94.39687 40.75625 94.19375 41.365623Q93.9125 42.303123 93.9125 43.4125L93.9125 48.85L92.14687 48.85ZM99.17812 36.553123L99.17812 34.5375L100.94375 34.5375L100.94375 36.553123L99.17812 36.553123ZM99.17812 48.85L99.17812 38.475L100.94375 38.475L100.94375 48.85L99.17812 48.85ZM102.45937 45.75625L104.20937 45.475Q104.35 46.521873 105.02187 47.084373Q105.69375 47.63125 106.89687 47.63125Q108.1 47.63125 108.67812 47.146873Q109.27187 46.646873 109.27187 45.990623Q109.27187 45.396873 108.75625 45.053123Q108.39687 44.81875 106.95937 44.459373Q105.02187 43.959373 104.27187 43.615623Q103.5375 43.25625 103.14687 42.63125Q102.75625 41.990623 102.75625 41.225Q102.75625 40.5375 103.06875 39.94375Q103.39687 39.35 103.94375 38.959373Q104.35 38.6625 105.05312 38.459373Q105.77187 38.240623 106.58437 38.240623Q107.80312 38.240623 108.725 38.6Q109.64687 38.94375 110.08437 39.553123Q110.52187 40.146873 110.69375 41.146873L108.975 41.38125Q108.85 40.584373 108.2875 40.146873Q107.725 39.69375 106.70937 39.69375Q105.49062 39.69375 104.975 40.1Q104.45937 40.490623 104.45937 41.021873Q104.45937 41.365623 104.67812 41.646873Q104.88125 41.928123 105.35 42.115623Q105.61562 42.209373 106.89687 42.553123Q108.77187 43.053123 109.50625 43.38125Q110.24062 43.69375 110.6625 44.303123Q111.08437 44.896873 111.08437 45.803123Q111.08437 46.678123 110.56875 47.459373Q110.05312 48.240623 109.08437 48.6625Q108.11562 49.084373 106.89687 49.084373Q104.88125 49.084373 103.81875 48.240623Q102.75625 47.396873 102.45937 45.75625ZM113.1625 52.81875L113.1625 38.475L114.77187 38.475L114.77187 39.81875Q115.33437 39.0375 116.0375 38.646873Q116.75625 38.240623 117.77187 38.240623Q119.1 38.240623 120.11562 38.928123Q121.13125 39.615623 121.64687 40.865623Q122.17812 42.1 122.17812 43.584373Q122.17812 45.178123 121.6 46.459373Q121.0375 47.725 119.94375 48.4125Q118.85 49.084373 117.64687 49.084373Q116.77187 49.084373 116.06875 48.709373Q115.38125 48.334373 114.92812 47.771873L114.92812 52.81875L113.1625 52.81875ZM114.75625 43.725Q114.75625 45.725 115.56875 46.678123Q116.38125 47.63125 117.5375 47.63125Q118.70937 47.63125 119.5375 46.646873Q120.38125 45.6625 120.38125 43.56875Q120.38125 41.6 119.55312 40.615623Q118.74062 39.615623 117.61562 39.615623Q116.49062 39.615623 115.61562 40.678123Q114.75625 41.725 114.75625 43.725ZM131.27188 45.50625L133.08438 45.740623Q132.6625 47.31875 131.49063 48.209373Q130.33438 49.084373 128.52188 49.084373Q126.25625 49.084373 124.9125 47.69375Q123.58437 46.2875 123.58437 43.75625Q123.58437 41.13125 124.92812 39.69375Q126.27187 38.240623 128.42813 38.240623Q130.50626 38.240623 131.81876 39.6625Q133.14688 41.06875 133.14688 43.646873Q133.14688 43.803123 133.13126 44.115623L125.39687 44.115623Q125.49062 45.81875 126.36562 46.725Q127.24062 47.63125 128.5375 47.63125Q129.50626 47.63125 130.17813 47.13125Q130.86563 46.615623 131.27188 45.50625ZM125.49062 42.6625L131.2875 42.6625Q131.17813 41.365623 130.63126 40.709373Q129.7875 39.69375 128.44376 39.69375Q127.24062 39.69375 126.4125 40.50625Q125.58437 41.303123 125.49062 42.6625ZM139.00626 47.271873L139.25626 48.834373Q138.52188 48.990623 137.92813 48.990623Q136.975 48.990623 136.44376 48.69375Q135.92813 48.38125 135.70938 47.896873Q135.49063 47.396873 135.49063 45.81875L135.49063 39.85L134.20938 39.85L134.20938 38.475L135.49063 38.475L135.49063 35.9125L137.24063 34.85L137.24063 38.475L139.00626 38.475L139.00626 39.85L137.24063 39.85L137.24063 45.9125Q137.24063 46.6625 137.33438 46.88125Q137.42813 47.084373 137.63126 47.225Q137.85 47.35 138.24063 47.35Q138.52188 47.35 139.00626 47.271873ZM145.00626 47.271873L145.25626 48.834373Q144.52188 48.990623 143.92813 48.990623Q142.975 48.990623 142.44376 48.69375Q141.92813 48.38125 141.70938 47.896873Q141.49063 47.396873 141.49063 45.81875L141.49063 39.85L140.20938 39.85L140.20938 38.475L141.49063 38.475L141.49063 35.9125L143.24063 34.85L143.24063 38.475L145.00626 38.475L145.00626 39.85L143.24063 39.85L143.24063 45.9125Q143.24063 46.6625 143.33438 46.88125Q143.42813 47.084373 143.63126 47.225Q143.85 47.35 144.24063 47.35Q144.52188 47.35 145.00626 47.271873ZM146.52188 43.6625Q146.52188 40.7875 148.11563 39.396873Q149.45938 38.240623 151.38126 38.240623Q153.52188 38.240623 154.86563 39.646873Q156.225 41.053123 156.225 43.521873Q156.225 45.521873 155.63126 46.678123Q155.0375 47.81875 153.88126 48.459373Q152.74063 49.084373 151.38126 49.084373Q149.19376 49.084373 147.85 47.69375Q146.52188 46.2875 146.52188 43.6625ZM148.31876 43.6625Q148.31876 45.6625 149.17813 46.646873Q150.05313 47.63125 151.38126 47.63125Q152.69376 47.63125 153.55313 46.646873Q154.42813 45.646873 154.42813 43.6Q154.42813 41.678123 153.55313 40.69375Q152.67813 39.69375 151.38126 39.69375Q150.05313 39.69375 149.17813 40.69375Q148.31876 41.678123 148.31876 43.6625ZM170.94376 47.56875Q169.95938 48.396873 169.05313 48.740623Q168.14688 49.084373 167.11563 49.084373Q165.4125 49.084373 164.49063 48.25625Q163.56876 47.4125 163.56876 46.115623Q163.56876 45.35 163.9125 44.725Q164.27188 44.1 164.83438 43.725Q165.39688 43.334373 166.1 43.13125Q166.61563 43.00625 167.6625 42.865623Q169.7875 42.615623 170.7875 42.271873Q170.80313 41.9125 170.80313 41.803123Q170.80313 40.740623 170.30313 40.2875Q169.63126 39.69375 168.30313 39.69375Q167.05313 39.69375 166.45938 40.13125Q165.88126 40.56875 165.6 41.678123L163.88126 41.44375Q164.11563 40.334373 164.64688 39.6625Q165.17813 38.975 166.19376 38.615623Q167.20938 38.240623 168.55313 38.240623Q169.88126 38.240623 170.70938 38.553123Q171.5375 38.865623 171.92813 39.35Q172.31876 39.81875 172.475 40.5375Q172.56876 40.990623 172.56876 42.1625L172.56876 44.50625Q172.56876 46.959373 172.67813 47.615623Q172.7875 48.25625 173.13126 48.85L171.2875 48.85Q171.02188 48.303123 170.94376 47.56875ZM170.7875 43.646873Q169.83438 44.0375 167.9125 44.303123Q166.83438 44.459373 166.38126 44.6625Q165.94376 44.85 165.69376 45.225Q165.44376 45.6 165.44376 46.06875Q165.44376 46.771873 165.975 47.240623Q166.50626 47.709373 167.5375 47.709373Q168.55313 47.709373 169.33438 47.271873Q170.13126 46.81875 170.50626 46.053123Q170.7875 45.44375 170.7875 44.2875L170.7875 43.646873ZM181.14688 48.85L181.14688 38.475L182.725 38.475L182.725 40.053123Q183.33438 38.94375 183.85 38.6Q184.36563 38.240623 184.975 38.240623Q185.86563 38.240623 186.7875 38.803123L186.17813 40.44375Q185.5375 40.053123 184.89688 40.053123Q184.31876 40.053123 183.85 40.4125Q183.39688 40.75625 183.19376 41.365623Q182.9125 42.303123 182.9125 43.4125L182.9125 48.85L181.14688 48.85ZM195.27188 45.50625L197.08438 45.740623Q196.6625 47.31875 195.49063 48.209373Q194.33438 49.084373 192.52188 49.084373Q190.25626 49.084373 188.9125 47.69375Q187.58438 46.2875 187.58438 43.75625Q187.58438 41.13125 188.92813 39.69375Q190.27188 38.240623 192.42813 38.240623Q194.50626 38.240623 195.81876 39.6625Q197.14688 41.06875 197.14688 43.646873Q197.14688 43.803123 197.13126 44.115623L189.39688 44.115623Q189.49063 45.81875 190.36563 46.725Q191.24063 47.63125 192.5375 47.63125Q193.50626 47.63125 194.17813 47.13125Q194.86563 46.615623 195.27188 45.50625ZM189.49063 42.6625L195.2875 42.6625Q195.17813 41.365623 194.63126 40.709373Q193.7875 39.69375 192.44376 39.69375Q191.24063 39.69375 190.4125 40.50625Q189.58438 41.303123 189.49063 42.6625ZM205.94376 47.56875Q204.95938 48.396873 204.05313 48.740623Q203.14688 49.084373 202.11563 49.084373Q200.4125 49.084373 199.49063 48.25625Q198.56876 47.4125 198.56876 46.115623Q198.56876 45.35 198.9125 44.725Q199.27188 44.1 199.83438 43.725Q200.39688 43.334373 201.1 43.13125Q201.61563 43.00625 202.6625 42.865623Q204.7875 42.615623 205.7875 42.271873Q205.80313 41.9125 205.80313 41.803123Q205.80313 40.740623 205.30313 40.2875Q204.63126 39.69375 203.30313 39.69375Q202.05313 39.69375 201.45938 40.13125Q200.88126 40.56875 200.6 41.678123L198.88126 41.44375Q199.11563 40.334373 199.64688 39.6625Q200.17813 38.975 201.19376 38.615623Q202.20938 38.240623 203.55313 38.240623Q204.88126 38.240623 205.70938 38.553123Q206.5375 38.865623 206.92813 39.35Q207.31876 39.81875 207.475 40.5375Q207.56876 40.990623 207.56876 42.1625L207.56876 44.50625Q207.56876 46.959373 207.67813 47.615623Q207.7875 48.25625 208.13126 48.85L206.2875 48.85Q206.02188 48.303123 205.94376 47.56875ZM205.7875 43.646873Q204.83438 44.0375 202.9125 44.303123Q201.83438 44.459373 201.38126 44.6625Q200.94376 44.85 200.69376 45.225Q200.44376 45.6 200.44376 46.06875Q200.44376 46.771873 200.975 47.240623Q201.50626 47.709373 202.5375 47.709373Q203.55313 47.709373 204.33438 47.271873Q205.13126 46.81875 205.50626 46.053123Q205.7875 45.44375 205.7875 44.2875L205.7875 43.646873ZM210.13126 48.85L210.13126 34.5375L211.88126 34.5375L211.88126 48.85L210.13126 48.85ZM219.45938 45.75625L221.20938 45.475Q221.35 46.521873 222.02188 47.084373Q222.69376 47.63125 223.89688 47.63125Q225.1 47.63125 225.67813 47.146873Q226.27188 46.646873 226.27188 45.990623Q226.27188 45.396873 225.75626 45.053123Q225.39688 44.81875 223.95938 44.459373Q222.02188 43.959373 221.27188 43.615623Q220.5375 43.25625 220.14688 42.63125Q219.75626 41.990623 219.75626 41.225Q219.75626 40.5375 220.06876 39.94375Q220.39688 39.35 220.94376 38.959373Q221.35 38.6625 222.05313 38.459373Q222.77188 38.240623 223.58438 38.240623Q224.80313 38.240623 225.725 38.6Q226.64688 38.94375 227.08438 39.553123Q227.52188 40.146873 227.69376 41.146873L225.975 41.38125Q225.85 40.584373 225.2875 40.146873Q224.725 39.69375 223.70938 39.69375Q222.49063 39.69375 221.975 40.1Q221.45938 40.490623 221.45938 41.021873Q221.45938 41.365623 221.67813 41.646873Q221.88126 41.928123 222.35 42.115623Q222.61563 42.209373 223.89688 42.553123Q225.77188 43.053123 226.50626 43.38125Q227.24063 43.69375 227.6625 44.303123Q228.08438 44.896873 228.08438 45.803123Q228.08438 46.678123 227.56876 47.459373Q227.05313 48.240623 226.08438 48.6625Q225.11563 49.084373 223.89688 49.084373Q221.88126 49.084373 220.81876 48.240623Q219.75626 47.396873 219.45938 45.75625ZM230.17813 36.553123L230.17813 34.5375L231.94376 34.5375L231.94376 36.553123L230.17813 36.553123ZM230.17813 48.85L230.17813 38.475L231.94376 38.475L231.94376 48.85L230.17813 48.85ZM233.24063 48.85L233.24063 47.428123L239.85 39.85Q238.725 39.896873 237.86563 39.896873L233.63126 39.896873L233.63126 38.475L242.11563 38.475L242.11563 39.646873L236.49063 46.225L235.4125 47.428123Q236.58438 47.334373 237.63126 47.334373L242.42813 47.334373L242.42813 48.85L233.24063 48.85ZM250.27188 45.50625L252.08438 45.740623Q251.6625 47.31875 250.49063 48.209373Q249.33438 49.084373 247.52188 49.084373Q245.25626 49.084373 243.9125 47.69375Q242.58438 46.2875 242.58438 43.75625Q242.58438 41.13125 243.92813 39.69375Q245.27188 38.240623 247.42813 38.240623Q249.50626 38.240623 250.81876 39.6625Q252.14688 41.06875 252.14688 43.646873Q252.14688 43.803123 252.13126 44.115623L244.39688 44.115623Q244.49063 45.81875 245.36563 46.725Q246.24063 47.63125 247.5375 47.63125Q248.50626 47.63125 249.17813 47.13125Q249.86563 46.615623 250.27188 45.50625ZM244.49063 42.6625L250.2875 42.6625Q250.17813 41.365623 249.63126 40.709373Q248.7875 39.69375 247.44376 39.69375Q246.24063 39.69375 245.4125 40.50625Q244.58438 41.303123 244.49063 42.6625ZM259.52188 43.6625Q259.52188 40.7875 261.11563 39.396873Q262.45938 38.240623 264.38126 38.240623Q266.52188 38.240623 267.86563 39.646873Q269.225 41.053123 269.225 43.521873Q269.225 45.521873 268.63126 46.678123Q268.0375 47.81875 266.88126 48.459373Q265.74063 49.084373 264.38126 49.084373Q262.19376 49.084373 260.85 47.69375Q259.52188 46.2875 259.52188 43.6625ZM261.31876 43.6625Q261.31876 45.6625 262.17813 46.646873Q263.05313 47.63125 264.38126 47.63125Q265.69376 47.63125 266.55313 46.646873Q267.42813 45.646873 267.42813 43.6Q267.42813 41.678123 266.55313 40.69375Q265.67813 39.69375 264.38126 39.69375Q263.05313 39.69375 262.17813 40.69375Q261.31876 41.678123 261.31876 43.6625ZM271.58438 48.85L271.58438 39.85L270.0375 39.85L270.0375 38.475L271.58438 38.475L271.58438 37.38125Q271.58438 36.334373 271.77188 35.81875Q272.02188 35.13125 272.6625 34.709373Q273.30313 34.2875 274.45938 34.2875Q275.20938 34.2875 276.1 34.459373L275.83438 35.990623Q275.2875 35.896873 274.80313 35.896873Q274.00626 35.896873 273.6625 36.240623Q273.33438 36.584373 273.33438 37.521873L273.33438 38.475L275.36563 38.475L275.36563 39.85L273.33438 39.85L273.33438 48.85L271.58438 48.85ZM283.1625 48.85L283.1625 38.475L284.74063 38.475L284.74063 39.928123Q285.225 39.178123 286.0375 38.709373Q286.85 38.240623 287.88126 38.240623Q289.0375 38.240623 289.77188 38.725Q290.50626 39.19375 290.81876 40.053123Q292.05313 38.240623 294.02188 38.240623Q295.56876 38.240623 296.39688 39.1Q297.225 39.959373 297.225 41.725L297.225 48.85L295.475 48.85L295.475 42.31875Q295.475 41.25625 295.30313 40.803123Q295.13126 40.334373 294.67813 40.053123Q294.24063 39.771873 293.63126 39.771873Q292.5375 39.771873 291.80313 40.50625Q291.08438 41.225 291.08438 42.81875L291.08438 48.85L289.33438 48.85L289.33438 42.115623Q289.33438 40.94375 288.89688 40.365623Q288.475 39.771873 287.49063 39.771873Q286.75626 39.771873 286.11563 40.1625Q285.49063 40.553123 285.20938 41.303123Q284.92813 42.053123 284.92813 43.475L284.92813 48.85L283.1625 48.85ZM299.17813 36.553123L299.17813 34.5375L300.94376 34.5375L300.94376 36.553123L299.17813 36.553123ZM299.17813 48.85L299.17813 38.475L300.94376 38.475L300.94376 48.85L299.17813 48.85ZM303.1625 48.85L303.1625 38.475L304.75626 38.475L304.75626 39.959373Q305.89688 38.240623 308.05313 38.240623Q308.99063 38.240623 309.77188 38.584373Q310.56876 38.9125 310.95938 39.459373Q311.35 40.00625 311.50626 40.75625Q311.6 41.25625 311.6 42.475L311.6 48.85L309.83438 48.85L309.83438 42.5375Q309.83438 41.459373 309.63126 40.928123Q309.42813 40.396873 308.89688 40.084373Q308.38126 39.771873 307.67813 39.771873Q306.55313 39.771873 305.74063 40.490623Q304.92813 41.19375 304.92813 43.178123L304.92813 48.85L303.1625 48.85Z" fill-rule="nonzero"/></svg>